<?xml version="1.0" encoding="UTF-8"?>
<svg id="Layer_2" data-name="Layer 2" xmlns="http://www.w3.org/2000/svg" viewBox="0 0 274.94 276.67">
  <defs>
    <style>
      .cls-1 {
        fill: #fff;
      }

      .cls-2 {
        fill: #fee612;
      }
    </style>
  </defs>
  <g id="Layer_1-2" data-name="Layer 1">
    <path class="cls-2" d="M228.34,100.05c4.05,12.55,5.86,27.55,1.64,40.25-5.97,5.91-16.03,10.38-24.04,13.08-18.4,6.18-37.42,9.21-56.82,10.03-22.82.97-44.56-.73-66.75-6.02-10.9-2.6-29.5-8.9-37.31-17.08-5.8-14.26-1.16-36.87,5.36-50.58,10.94-23.01,30.12-41.12,54.75-49.24-3.73-10.52-9.76-22.26-18.95-28.83-3.07,6.05-10.13,8.15-15.22,4.27-3.41-2.59-4.89-7.12-2.67-10.92,1.78-3.05,5.12-4.7,8.7-4.95,4.1-.28,8.1,1.22,11.59,3.41,12.16,7.63,19.84,21.52,24.13,34.94,17.07-3.98,31.34-3.9,48.59-.11,3.54-10.38,8.36-19.82,15.66-27.8,6.17-6.74,18.15-14.57,26.71-8.1,3.98,3,4.36,8.15,1.29,12-2.07,2.59-5.35,3.8-8.62,3.32-5.82-.84-7.44-6.01-8.01-5.93-1.13.15-6.04,5.33-7.09,6.58-5.46,6.48-9.19,13.92-11.77,22.12,10.23,3.29,19.05,8.26,27.29,14.72,14.73,11.56,25.77,26.93,31.55,44.82ZM114.86,100.53c.31-7.34-4.01-14.16-10.51-17.05s-14.13-1.4-19.21,3.34-6.7,12.06-4.47,18.72c1.97,5.88,6.96,10.02,12.4,11.33,6.34,1.53,12.96-.46,17.1-5.09,2.81-3.14,4.51-6.78,4.69-11.25ZM191.56,89.13c-6.16-8.57-18.37-9.52-26.13-2.52-6.22,5.61-7.43,14.95-3.15,22.03,5.34,8.83,16.48,11.3,24.88,5.8s10.55-16.76,4.4-25.31Z"/>
    <path class="cls-2" d="M43.78,164.38c8.88,5.81,18.67,8.88,28.75,11.97,15.33,4.7,30.9,7.36,46.88,8.59,7.81.6,27.76.63,35.43-.02,10.64-.91,20.93-2.19,31.37-4.4,15.84-3.36,34.93-9.35,48.51-18.8.3,20.9-7.88,41.78-21.45,58.35-24.73,30.2-66.1,41.1-103.35,31.15-22.76-6.08-42.06-20.02-54.86-39.73-9.47-14.58-15.4-31.87-15.14-49.64l3.86,2.53Z"/>
    <path class="cls-2" d="M266.23,152.45c-7.97,7.02-18.02,8.11-26.49,1.43-.87-5.86-2.4-11.25-5.11-16.35l2.31-10.77c8.28-6.18,19.04-8.44,28.9-4.75,5.88,2.2,9.52,7.45,9.08,13.92-.44,6.5-3.82,12.24-8.68,16.52Z"/>
    <path class="cls-2" d="M34.96,153.65c-7.06,6.2-16.89,6.1-24.26.57-4.4-3.3-7.81-7.61-9.66-12.86-.72-2.05-.9-4.13-1.01-6.3-.59-11,10.75-15.67,20.06-14.75,6.46.64,12.43,2.57,17.74,6.5l1.61,8.43c.13.68.78,2.22.43,2.86-1.99,3.69-3.36,7.56-4.15,11.64l-.75,3.91Z"/>
    <path class="cls-2" d="M182.37,269.4c-3.29,5.77-9.94,8.58-16.12,6.68-7.64-2.35-10.55-9.98-10.13-17.43,10.66-1.88,20.47-4.84,30-9.92l-.55,8.82c-.26,4.1-1.08,8.15-3.2,11.86Z"/>
    <path class="cls-2" d="M101.63,276.3c-8.77-2.01-11.96-10.53-12.53-18.71l-.6-8.67c9.69,4.79,19.2,8.04,29.79,9.68,0,1.95,0,3.79-.23,5.7-.98,8.11-8.42,13.84-16.44,12.01Z"/>
    <path class="cls-2" d="M257.99,179.85c-3.59,3.93-8.95,5.07-14,3.95-2.32-.57-4.33-1.73-5.68-3.68,1.51-7.28,1.93-14.21,1.62-21.95,4.52,2.38,9.01,3.23,13.84,4.12,3.79.7,6.58,4.48,7.15,8.03.34,3.67-.39,6.75-2.93,9.53Z"/>
    <path class="cls-2" d="M36.22,180.61c-4.02,4.85-13.32,4.83-18.35.2-2.91-2.68-4.67-6.24-3.92-10.36.58-3.17,2.85-7.29,6.63-8.08,4.85-1.02,9.4-1.62,14.1-4.14l-.12,5.68c-.12,5.6.88,11.03,1.67,16.71Z"/>
    <path d="M114.86,100.53c-.19,4.47-1.88,8.11-4.69,11.25-4.14,4.63-10.77,6.62-17.1,5.09-5.43-1.31-10.42-5.45-12.4-11.33-2.23-6.65-.58-14.01,4.47-18.72s12.6-6.28,19.21-3.34,10.82,9.71,10.51,17.05ZM101.82,99.14c2.9-.35,4.71-2.44,5.11-4.61.5-2.71-.84-5.07-2.91-6.21-2.31-1.28-5.08-.95-6.9,1.06-1.61,1.78-1.92,4.4-.84,6.67.82,1.74,3.04,3.38,5.54,3.08Z"/>
    <path d="M191.56,89.13c6.15,8.56,3.95,19.84-4.4,25.31s-19.54,3.03-24.88-5.8c-4.28-7.08-3.07-16.42,3.15-22.03,7.76-7,19.97-6.06,26.13,2.52ZM184.93,97.74c2.78-2.36,2.44-6.6-.06-8.7-2.63-2.2-6.73-1.96-8.67,1.01-1.66,2.53-1.06,5.89,1.13,7.75,2.06,1.74,5.19,1.99,7.6-.06Z"/>
    <path class="cls-1" d="M101.82,99.14c-2.5.3-4.72-1.34-5.54-3.08-1.07-2.27-.77-4.89.84-6.67,1.82-2.01,4.59-2.34,6.9-1.06,2.06,1.14,3.41,3.5,2.91,6.21-.4,2.17-2.21,4.26-5.11,4.61Z"/>
    <path class="cls-1" d="M184.93,97.74c-2.41,2.04-5.55,1.79-7.6.06-2.19-1.85-2.79-5.21-1.13-7.75,1.95-2.97,6.05-3.21,8.67-1.01s2.84,6.34.06,8.7Z"/>
  </g>
</svg>